<?xml version="1.0" encoding="utf-8"?>
<!-- Generator: Adobe Illustrator 25.3.1, SVG Export Plug-In . SVG Version: 6.00 Build 0)  -->
<svg version="1.1" id="Layer_1" xmlns="http://www.w3.org/2000/svg" xmlns:xlink="http://www.w3.org/1999/xlink" x="0px" y="0px"
	 viewBox="0 0 300 300" style="enable-background:new 0 0 300 300;" xml:space="preserve">
<style type="text/css">
	.st0{fill:#FFFFFF;}
</style>
<g>
	<path d="M141.5,14.6L37,74.9c-5.2,3-8.5,8.6-8.5,14.7v120.7c0,6.1,3.2,11.7,8.5,14.7l104.6,60.4c5.2,3,11.7,3,17,0L263,225.1
		c5.2-3,8.5-8.6,8.5-14.7V89.6c0-6.1-3.2-11.7-8.5-14.7L158.5,14.6C153.2,11.5,146.8,11.5,141.5,14.6z"/>
	<g>
		<g>
			<path class="st0" d="M82.3,78.8h37.2v9.4H107v98.4H94.8V88.2H82.3V78.8z"/>
			<path class="st0" d="M152.1,127.9V79.1h12.1v42.8l-6.5,10.7l6.5,10.4v50c-3.4-1.1-6.3-3.1-8.5-6c-2.4-3.1-3.6-6.5-3.6-10.2v-39.2
				h-12.5v49.1h-12.5V79.1h12.5v48.8H152.1z"/>
			<path class="st0" d="M199.3,186.9H189c-5.5,0-9.7-3-12.5-9.1c-1.3-2.7-1.9-5.4-1.9-8.3V95.1c0-5.7,2.6-10.4,7.8-14
				c2.3-1.6,4.7-2.4,7.1-2.4h7.1c5.5,0,9.8,2.9,12.9,8.7c1.4,2.6,2.1,5.3,2.1,8.1v100.4c-2.8,0-5.3-0.8-7.6-2.3
				C201.5,191.9,200,189.6,199.3,186.9z M187,88.2v89.1h12.2V88.2H187z"/>
		</g>
	</g>
	<g>
		<g>
			<path class="st0" d="M115.8,223.8v4.2c0,1-1,1.7-3,2.2c-0.9,0.2-1.9,0.4-2.9,0.4h-8.4v-3.3h4.8v1.8h4.7v-6.4h-3.4
				c-2.4,0-4.2-0.5-5.4-1.5c-0.5-0.5-0.8-0.9-0.8-1.5v-3.9c0-1.1,1.1-1.8,3.4-2.3c1-0.2,2.1-0.3,3.2-0.3h7.7v3.3H111v-1.8h-4.7v6.5
				h3.7c2.1,0,3.8,0.5,5,1.4C115.5,222.9,115.8,223.3,115.8,223.8z"/>
			<path class="st0" d="M129.2,230.6V213h4.8v8h4.7v-8h4.8v17.6h-4.8v-8H134v8H129.2z"/>
			<path class="st0" d="M157,227.8v-12.1c0-1,1-1.7,3.1-2.3c0.9-0.3,1.9-0.4,2.8-0.4h2.7c2.1,0,3.8,0.5,5,1.4
				c0.5,0.4,0.8,0.9,0.8,1.3v12.2c0,1-1,1.8-3,2.3c-0.9,0.2-1.9,0.4-2.9,0.4h-2.9c-2.1,0-3.7-0.5-4.9-1.5
				C157.2,228.7,157,228.2,157,227.8z M161.8,214.6V229h4.7v-14.5H161.8z"/>
			<path class="st0" d="M199.2,215.8v6.5c0,1-1,1.8-2.9,2.4c-0.9,0.3-1.9,0.4-2.9,0.4h-3.7v5.5h-4.8v-14.9c0-1,1-1.7,3-2.3
				c0.9-0.2,1.8-0.4,2.8-0.4h2.7c2.2,0,3.8,0.5,5.1,1.4C198.9,214.9,199.2,215.3,199.2,215.8z M189.6,214.6v9h4.8v-9H189.6z"/>
		</g>
	</g>
</g>
</svg>
