<svg id="visual" viewBox="0 0 900 600" width="900" height="600" xmlns="http://www.w3.org/2000/svg" xmlns:xlink="http://www.w3.org/1999/xlink" version="1.1"><rect x="0" y="0" width="900" height="600" fill="#ffffff"></rect><defs><linearGradient id="grad1_0" x1="33.3%" y1="0%" x2="100%" y2="100%"><stop offset="20%" stop-color="#ffffff" stop-opacity="1"></stop><stop offset="80%" stop-color="#ffffff" stop-opacity="1"></stop></linearGradient></defs><defs><linearGradient id="grad2_0" x1="0%" y1="0%" x2="66.7%" y2="100%"><stop offset="20%" stop-color="#ffffff" stop-opacity="1"></stop><stop offset="80%" stop-color="#ffffff" stop-opacity="1"></stop></linearGradient></defs><g transform="translate(900, 0)"><path d="M0 243.4C-17.6 233 -35.2 222.6 -47.8 209.6C-60.5 196.6 -68.1 180.9 -87.2 181.1C-106.3 181.3 -136.8 197.4 -151.7 190.3C-166.7 183.2 -166 152.8 -162.6 129.7C-159.2 106.6 -153 90.7 -166.7 80.3C-180.4 69.9 -214 65 -230.1 52.5C-246.2 40.1 -244.8 20 -243.4 0L0 0Z" fill="#151311"></path></g><g transform="translate(0, 600)"><path d="M0 -243.4C19.5 -235.4 39 -227.4 47 -205.7C54.9 -184 51.4 -148.6 72.9 -151.4C94.4 -154.1 141 -195 151.7 -190.3C162.5 -185.6 137.5 -135.3 143.9 -114.7C150.2 -94.2 187.9 -103.4 199.1 -95.9C210.3 -88.3 195 -64 197.9 -45.2C200.9 -26.4 222.1 -13.2 243.4 0L0 0Z" fill="#151311"></path></g></svg>